<?xml version="1.0" encoding="UTF-8" standalone="no"?>
<svg width="242.358mm" height="235.479mm"
 xmlns="http://www.w3.org/2000/svg" xmlns:xlink="http://www.w3.org/1999/xlink"  version="1.2" baseProfile="tiny">
<desc>Created by EvoPdf</desc>
<defs>
</defs>
<g fill="none" stroke="black" strokeWidth="1" fill-rule="evenodd" strokeLinecap="square" strokeLinejoin="bevel" >

<g fill="#000000" fill-opacity="1" stroke="#000000" stroke-opacity="1" strokeWidth="1" strokeLinecap="square" strokeLinejoin="miter" stroke-miterlimit="2" transform="matrix(1,0,0,1,0,0)"
>
</g>

<g fill="#000000" fill-opacity="1" stroke="#000000" stroke-opacity="1" strokeWidth="1" strokeLinecap="square" strokeLinejoin="miter" stroke-miterlimit="2" transform="matrix(1,0,0,1,0,0)"
>
</g>

<g fill="#000000" fill-opacity="1" stroke="#000000" stroke-opacity="1" strokeWidth="1" strokeLinecap="square" strokeLinejoin="miter" stroke-miterlimit="2" transform="matrix(1,0,0,1,0,0)"
>
</g>

<g fill="#000000" fill-opacity="1" stroke="#000000" stroke-opacity="1" strokeWidth="1" strokeLinecap="square" strokeLinejoin="miter" stroke-miterlimit="2" transform="matrix(1,0,0,1,0,0)"
>
</g>

<g fill="#000000" fill-opacity="1" stroke="#000000" stroke-opacity="1" strokeWidth="1" strokeLinecap="square" strokeLinejoin="miter" stroke-miterlimit="2" transform="matrix(27.8125,0,0,27.8125,13,8)"
>
</g>

<g fill="none" stroke="#f9322c" stroke-opacity="1" strokeWidth="1" strokeLinecap="butt" strokeLinejoin="miter" stroke-miterlimit="4" transform="matrix(27.8125,0,0,27.8125,13,8)"
>
<path vector-effect="none" fill-rule="nonzero" d="M0.5,0.5 L31.5,0.5 L31.5,31.5 L0.5,31.5 L0.5,0.5"/>
</g>

<g fill="#000000" fill-opacity="1" stroke="#000000" stroke-opacity="1" strokeWidth="1" strokeLinecap="square" strokeLinejoin="miter" stroke-miterlimit="2" transform="matrix(27.8125,0,0,27.8125,13,8)"
>
</g>

<g fill="none" stroke="#f9322c" stroke-opacity="1" strokeWidth="1" strokeLinecap="round" strokeLinejoin="round" transform="matrix(27.8125,0,0,27.8125,13,8)"
>
<path vector-effect="none" fill-rule="nonzero" d="M8,11 L8,21 C8,23.21 11.582,25 16,25 C20.418,25 24,23.21 24,21 L24,11 M8,11 C8,13.21 11.582,15 16,15 C20.418,15 24,13.21 24,11 M8,11 C8,8.79 11.582,7 16,7 C20.418,7 24,8.79 24,11 M24,16 C24,18.21 20.418,20 16,20 C11.582,20 8,18.21 8,16 "/>
</g>

<g fill="#000000" fill-opacity="1" stroke="#000000" stroke-opacity="1" strokeWidth="1" strokeLinecap="square" strokeLinejoin="miter" stroke-miterlimit="2" transform="matrix(27.8125,0,0,27.8125,13,8)"
>
</g>

<g fill="#000000" fill-opacity="1" stroke="#000000" stroke-opacity="1" strokeWidth="1" strokeLinecap="square" strokeLinejoin="miter" stroke-miterlimit="2" transform="matrix(27.8125,0,0,27.8125,13,8)"
>
</g>

<g fill="#000000" fill-opacity="1" stroke="#000000" stroke-opacity="1" strokeWidth="1" strokeLinecap="square" strokeLinejoin="miter" stroke-miterlimit="2" transform="matrix(1,0,0,1,0,0)"
>
</g>

<g fill="#000000" fill-opacity="1" stroke="#000000" stroke-opacity="1" strokeWidth="1" strokeLinecap="square" strokeLinejoin="miter" stroke-miterlimit="2" transform="matrix(1,0,0,1,0,0)"
>
</g>

<g fill="#000000" fill-opacity="1" stroke="#000000" stroke-opacity="1" strokeWidth="1" strokeLinecap="square" strokeLinejoin="miter" stroke-miterlimit="2" transform="matrix(1,0,0,1,0,0)"
>
</g>

<g fill="#000000" fill-opacity="1" stroke="#000000" stroke-opacity="1" strokeWidth="1" strokeLinecap="square" strokeLinejoin="miter" stroke-miterlimit="2" transform="matrix(1,0,0,1,0,0)"
>
</g>

<g fill="#000000" fill-opacity="1" stroke="#000000" stroke-opacity="1" strokeWidth="1" strokeLinecap="square" strokeLinejoin="miter" stroke-miterlimit="2" transform="matrix(27.8125,0,0,27.8125,13,8)"
>
</g>

<g fill="#000000" fill-opacity="1" stroke="#000000" stroke-opacity="1" strokeWidth="1" strokeLinecap="square" strokeLinejoin="miter" stroke-miterlimit="2" transform="matrix(1,0,0,1,0,0)"
>
</g>

<g fill="#000000" fill-opacity="1" stroke="#000000" stroke-opacity="1" strokeWidth="1" strokeLinecap="square" strokeLinejoin="miter" stroke-miterlimit="2" transform="matrix(1,0,0,1,0,0)"
>
</g>

<g fill="#000000" fill-opacity="1" stroke="#000000" stroke-opacity="1" strokeWidth="1" strokeLinecap="square" strokeLinejoin="miter" stroke-miterlimit="2" transform="matrix(1,0,0,1,0,0)"
>
</g>

<g fill="#000000" fill-opacity="1" stroke="#000000" stroke-opacity="1" strokeWidth="1" strokeLinecap="square" strokeLinejoin="miter" stroke-miterlimit="2" transform="matrix(1,0,0,1,0,0)"
>
</g>

<g fill="#000000" fill-opacity="1" stroke="#000000" stroke-opacity="1" strokeWidth="1" strokeLinecap="square" strokeLinejoin="miter" stroke-miterlimit="2" transform="matrix(1,0,0,1,0,0)"
>
</g>

<g fill="#000000" fill-opacity="1" stroke="#000000" stroke-opacity="1" strokeWidth="1" strokeLinecap="square" strokeLinejoin="miter" stroke-miterlimit="2" transform="matrix(1,0,0,1,0,0)"
>
</g>
</g>
</svg>
