<?xml version="1.0" standalone="no"?>
<!DOCTYPE svg PUBLIC "-//W3C//DTD SVG 20010904//EN"
 "http://www.w3.org/TR/2001/REC-SVG-20010904/DTD/svg10.dtd">
<svg version="1.0" xmlns="http://www.w3.org/2000/svg"
 width="832.000000pt" height="832.000000pt" viewBox="0 0 832.000000 832.000000"
 preserveAspectRatio="xMidYMid meet">
<metadata>
Created by potrace 1.14, written by Peter Selinger 2001-2017
</metadata>
<g transform="translate(0.000000,832.000000) scale(0.100000,-0.100000)"
fill="#000000" stroke="none">
<path d="M1765 8307 c-11 -6 -22 -14 -25 -17 -9 -9 -84 -51 -112 -63 -16 -6
-28 -15 -28 -19 0 -4 -4 -8 -9 -8 -8 0 -114 -60 -348 -197 -51 -29 -95 -52
-97 -51 -2 2 -12 -4 -22 -13 -11 -9 -77 -49 -149 -89 -71 -41 -133 -78 -137
-84 -4 -6 -8 -8 -8 -4 0 4 -24 -7 -52 -25 -29 -19 -82 -49 -118 -68 -36 -19
-67 -36 -70 -39 -3 -3 -75 -45 -160 -94 -228 -131 -246 -144 -259 -185 -9 -27
-11 -719 -9 -2703 l3 -2667 40 -35 c22 -20 43 -36 46 -36 4 0 147 -81 318
-180 172 -99 316 -180 322 -180 5 0 9 -4 9 -10 0 -5 5 -10 10 -10 6 0 40 -18
76 -40 36 -22 69 -40 73 -40 4 0 13 -6 20 -12 6 -7 15 -13 19 -13 4 0 45 -23
92 -51 47 -28 163 -95 258 -150 95 -54 189 -109 210 -122 20 -12 48 -28 62
-34 14 -7 41 -22 60 -34 63 -39 235 -138 240 -139 3 0 16 -8 30 -17 14 -8 149
-87 300 -173 151 -87 328 -189 392 -226 64 -38 121 -69 127 -69 6 0 11 -4 11
-10 0 -5 4 -10 9 -10 5 0 103 -54 217 -121 210 -121 268 -144 302 -117 6 6 12
8 12 5 0 -3 41 19 90 49 50 30 95 54 100 54 6 0 10 5 10 10 0 6 4 10 9 10 7 0
153 80 201 110 8 5 67 39 130 75 63 36 122 70 130 75 8 5 40 23 70 40 30 17
69 39 85 49 17 10 51 29 77 44 25 14 64 37 87 51 22 14 45 26 50 26 5 0 16 6
23 12 7 7 27 20 43 28 17 8 45 26 64 40 19 14 35 23 35 21 1 -3 12 2 26 11 28
17 145 85 205 118 22 13 54 31 70 41 17 11 37 22 45 26 8 4 53 29 100 56 47
28 94 55 105 61 55 31 242 138 255 146 101 62 150 88 150 82 0 -4 4 -2 8 3 9
13 270 165 283 165 5 0 9 5 9 10 0 6 4 10 10 10 5 0 64 32 132 72 68 39 143
83 168 97 25 14 96 55 159 91 62 36 127 73 144 83 18 10 41 30 52 45 20 26 20
44 22 882 0 470 2 860 2 866 1 6 16 18 34 27 17 9 55 29 82 45 28 16 66 38 85
49 19 11 53 31 75 44 22 13 52 31 67 39 16 8 68 39 118 68 49 28 94 52 100 52
5 0 10 5 10 10 0 6 4 10 10 10 5 0 39 18 75 40 36 22 68 40 70 40 3 0 24 11
46 26 38 24 60 36 156 90 23 13 108 62 188 109 81 47 148 85 150 85 2 0 23 13
47 29 24 16 53 32 66 35 12 4 22 12 22 17 0 5 3 8 8 7 14 -4 88 50 107 78 19
28 19 61 19 944 0 878 0 916 -18 943 -16 24 -151 112 -236 154 -14 7 -43 24
-65 38 -22 14 -47 28 -55 32 -8 4 -87 49 -174 100 -87 51 -160 93 -162 93 -1
0 -37 20 -78 45 -42 25 -81 45 -86 45 -6 0 -10 4 -10 9 0 5 -8 11 -17 14 -10
4 -43 21 -74 39 -31 18 -81 47 -110 64 -112 64 -148 84 -294 169 -246 143
-250 145 -293 141 -36 -4 -102 -35 -192 -91 -19 -12 -56 -33 -81 -47 -81 -46
-94 -53 -99 -58 -3 -3 -27 -17 -55 -30 -27 -14 -58 -33 -69 -42 -11 -10 -24
-18 -28 -18 -5 0 -93 -49 -196 -108 -214 -124 -770 -445 -822 -475 -57 -32
-89 -57 -103 -80 -9 -17 -12 -213 -14 -867 -1 -465 -2 -852 -2 -861 -1 -11
-54 -47 -143 -98 -79 -45 -150 -86 -158 -91 -35 -21 -307 -177 -320 -183 -8
-4 -28 -15 -45 -26 -16 -10 -48 -28 -70 -41 -39 -22 -216 -123 -245 -140 -118
-69 -260 -150 -276 -158 l-22 -12 0 1659 c0 1312 -2 1663 -12 1682 -17 30 -44
53 -104 87 -27 15 -56 32 -65 37 -9 6 -230 133 -491 283 -261 151 -482 278
-490 283 -78 47 -244 139 -251 139 -5 0 -9 4 -9 9 0 5 -8 11 -17 14 -10 3 -31
14 -48 24 -108 64 -133 75 -174 79 -26 2 -55 -2 -66 -9z m93 -283 c12 -8 22
-12 22 -9 0 3 6 1 13 -5 18 -16 87 -60 93 -60 3 0 76 -41 162 -91 86 -51 172
-100 190 -110 73 -43 109 -63 152 -87 25 -13 50 -28 55 -32 6 -4 30 -19 55
-32 51 -28 47 -26 300 -172 102 -59 188 -110 193 -115 7 -7 -55 -47 -198 -127
-22 -12 -96 -55 -165 -94 -69 -40 -140 -81 -158 -91 -18 -11 -90 -52 -160 -93
-70 -40 -147 -84 -172 -98 -25 -14 -84 -48 -132 -77 -48 -28 -89 -51 -92 -51
-2 0 -46 -25 -96 -56 l-91 -56 -82 48 c-45 26 -102 58 -127 72 -39 21 -255
146 -400 230 -25 15 -61 36 -81 47 -20 11 -102 58 -182 105 -81 47 -160 92
-175 100 -16 8 -74 42 -130 74 -80 47 -99 62 -91 73 7 7 15 13 18 13 4 0 90
48 192 106 480 277 563 324 570 324 5 0 9 3 9 8 0 4 17 15 38 25 20 9 125 68
232 131 107 63 200 115 205 115 6 1 21 -6 33 -15z m4657 -894 c36 -22 67 -40
70 -40 2 0 45 -25 95 -55 50 -30 93 -55 96 -55 3 0 18 -8 32 -19 15 -10 52
-32 82 -48 68 -37 386 -219 420 -241 14 -9 27 -17 30 -17 3 0 16 -8 30 -17 55
-35 152 -88 161 -88 5 0 9 -3 9 -7 0 -5 23 -19 50 -32 28 -14 50 -29 50 -33 0
-4 3 -7 8 -6 11 2 62 -24 62 -33 0 -8 -36 -31 -110 -70 -25 -13 -47 -26 -50
-30 -5 -5 -96 -57 -155 -89 -16 -9 -73 -42 -127 -73 -53 -31 -101 -57 -106
-57 -6 0 -12 -3 -14 -8 -1 -4 -43 -31 -93 -59 -49 -28 -144 -82 -210 -120 -66
-38 -140 -81 -165 -95 -25 -14 -89 -51 -143 -82 l-97 -57 -223 127 c-122 70
-230 134 -239 142 -10 8 -18 11 -18 7 0 -4 -8 -1 -17 7 -10 9 -39 27 -65 42
-127 70 -144 79 -153 86 -5 4 -30 19 -55 32 -25 14 -101 58 -170 98 -69 40
-150 86 -180 103 -105 59 -144 83 -147 92 -2 9 105 76 135 83 6 2 12 8 12 13
0 5 5 9 11 9 6 0 64 32 129 70 65 39 123 70 129 70 6 0 11 5 11 10 0 6 4 10 9
10 4 0 86 45 181 100 95 55 176 100 181 100 4 0 9 3 11 8 2 4 28 20 58 36 30
16 71 40 90 53 19 13 40 23 47 23 7 0 13 5 13 10 0 6 4 10 9 10 6 0 58 29 118
64 59 36 114 65 120 65 7 1 42 -17 78 -39z m-6010 -96 c44 -26 96 -55 115 -67
19 -11 55 -31 80 -45 25 -14 121 -70 214 -124 93 -54 171 -98 173 -98 2 0 22
-12 46 -27 23 -15 71 -43 107 -63 82 -46 133 -75 190 -109 49 -28 55 -32 182
-105 l85 -48 0 -1707 c0 -938 3 -1727 7 -1752 7 -46 32 -79 81 -105 37 -19
190 -105 205 -114 56 -35 354 -200 361 -200 5 0 9 -4 9 -10 0 -5 5 -10 10 -10
6 0 74 -36 152 -81 77 -44 159 -91 182 -103 53 -29 127 -71 188 -107 27 -16
53 -29 58 -29 6 0 10 -4 10 -10 0 -5 6 -10 13 -10 6 0 28 -10 47 -22 19 -12
37 -22 40 -23 12 -2 170 -97 171 -103 6 -30 2 -1462 -3 -1462 -6 0 -266 147
-338 191 -8 5 -78 45 -155 89 -77 44 -147 84 -155 89 -8 6 -37 22 -63 36 -26
14 -93 52 -148 85 -56 33 -103 60 -105 60 -2 0 -37 20 -77 45 -41 25 -78 45
-81 45 -4 0 -12 5 -19 10 -7 6 -79 49 -162 97 -82 47 -172 99 -200 115 -27 16
-61 34 -75 41 -14 6 -27 14 -30 17 -5 5 -228 134 -290 167 -14 8 -38 23 -55
33 -16 11 -43 26 -60 35 -16 8 -43 23 -60 34 -16 10 -48 28 -70 41 -22 12 -69
39 -105 60 -36 21 -81 47 -100 58 -170 95 -447 256 -455 263 -9 9 -15 4969 -5
4969 3 0 41 -21 85 -46z m2730 -1564 c0 -1423 -2 -1599 -15 -1608 -9 -5 -114
-66 -235 -136 -121 -69 -227 -131 -235 -136 -8 -6 -27 -16 -42 -23 -16 -6 -28
-15 -28 -19 0 -4 -5 -8 -10 -8 -6 0 -27 -10 -48 -23 -20 -13 -62 -37 -92 -54
-30 -17 -122 -69 -203 -117 -82 -47 -153 -86 -158 -86 -5 0 -9 -4 -9 -10 0 -5
-5 -10 -11 -10 -6 0 -44 -20 -84 -44 -39 -24 -81 -46 -91 -50 -19 -6 -20 15
-20 1598 l0 1605 41 22 c22 12 141 81 265 153 124 71 243 139 265 151 22 12
85 49 140 81 55 33 121 70 148 84 26 14 47 28 47 32 0 5 5 8 11 8 5 0 54 25
107 56 53 31 117 68 142 82 25 14 58 33 75 43 16 10 32 16 35 13 3 -3 5 -725
5 -1604z m1961 649 c88 -50 173 -99 189 -109 52 -29 139 -81 155 -90 20 -12
514 -297 563 -324 21 -11 46 -26 55 -31 9 -6 47 -27 85 -48 l67 -39 0 -730 0
-729 -57 32 c-32 18 -67 37 -78 43 -11 6 -27 16 -35 22 -8 7 -37 24 -65 39
-27 14 -66 36 -85 47 -19 11 -181 104 -360 207 -179 102 -327 188 -330 191 -3
3 -14 10 -25 16 -87 47 -128 70 -182 102 l-63 37 0 728 c0 400 2 727 4 727 2
0 75 -41 162 -91z m2652 -631 c0 -644 -1 -725 -15 -740 -9 -10 -20 -18 -24
-18 -4 0 -56 -29 -116 -64 -59 -35 -112 -64 -116 -64 -5 0 -23 -12 -41 -26
-19 -14 -36 -22 -40 -19 -3 4 -6 1 -6 -5 0 -7 -7 -12 -15 -12 -8 0 -15 -4 -15
-10 0 -5 -5 -10 -10 -10 -6 0 -51 -24 -100 -53 -50 -28 -102 -59 -118 -67 -15
-8 -65 -38 -112 -65 -89 -52 -100 -58 -165 -94 -22 -12 -53 -31 -70 -42 -16
-10 -37 -22 -45 -26 -8 -4 -64 -35 -124 -70 -60 -35 -113 -63 -117 -63 -5 0
-9 -5 -9 -11 0 -6 -5 -9 -12 -7 -15 5 -18 1435 -3 1453 9 11 111 75 119 75 2
0 55 30 117 67 63 36 157 91 209 121 123 70 112 64 432 248 150 87 298 172
328 190 30 18 58 33 62 33 3 1 6 -324 6 -721z m-2898 -984 c28 -14 53 -30 56
-35 3 -5 14 -9 24 -9 10 0 20 -4 22 -8 2 -4 71 -46 153 -94 83 -47 164 -94
182 -105 46 -27 115 -66 453 -261 168 -96 308 -180 312 -186 4 -6 8 -7 8 -3 0
5 5 5 11 2 12 -8 -1 -18 -81 -62 -30 -17 -151 -85 -268 -152 -117 -66 -216
-121 -221 -121 -5 0 -11 -3 -13 -8 -1 -4 -95 -60 -208 -124 -113 -64 -221
-125 -240 -137 -19 -11 -41 -24 -49 -28 -8 -3 -63 -35 -123 -70 -60 -35 -113
-63 -119 -63 -5 0 -9 -4 -9 -10 0 -5 -4 -10 -8 -10 -8 0 -109 -54 -167 -89
-16 -10 -48 -28 -70 -41 -22 -12 -86 -49 -142 -81 -56 -33 -107 -59 -112 -59
-6 0 -11 -4 -11 -9 0 -5 -8 -11 -17 -14 -10 -4 -43 -21 -74 -39 -31 -18 -92
-53 -135 -77 -44 -24 -91 -53 -106 -63 -16 -11 -28 -16 -28 -11 0 4 -4 3 -8
-3 -4 -6 -36 -27 -72 -46 -36 -20 -152 -86 -259 -147 -106 -61 -197 -111 -202
-111 -5 0 -9 -4 -9 -8 0 -4 -14 -13 -32 -20 -30 -11 -37 -9 -107 32 -65 37
-150 86 -346 196 -22 13 -67 38 -100 57 -33 19 -68 37 -77 40 -10 3 -18 9 -18
14 0 5 -4 9 -9 9 -5 0 -48 23 -96 50 -48 28 -91 50 -96 50 -5 0 -9 5 -9 10 0
6 -5 10 -11 10 -9 0 -104 52 -269 148 -19 11 -57 33 -85 47 -80 44 -80 44 -30
76 25 16 48 29 50 29 3 0 103 57 222 126 120 70 234 135 253 146 19 11 51 29
70 40 219 128 360 208 369 208 6 0 11 4 11 9 0 5 12 14 28 20 15 6 45 22 67
36 22 14 49 30 60 35 11 5 38 21 60 34 22 14 51 31 65 39 14 8 48 26 75 42 44
24 96 54 160 92 19 11 44 26 165 95 25 14 123 71 218 126 94 55 172 97 172 94
0 -4 4 -2 8 4 6 9 97 64 262 156 25 14 86 49 135 78 50 29 108 63 130 75 22
13 72 41 110 64 39 22 71 41 73 41 1 0 25 -12 52 -26z m1360 -1662 l0 -727
-45 -28 c-25 -15 -50 -27 -55 -27 -6 0 -10 -4 -10 -9 0 -5 -8 -11 -17 -14 -10
-3 -40 -19 -68 -36 -27 -16 -61 -36 -75 -44 -94 -51 -340 -194 -362 -209 -16
-11 -28 -16 -28 -11 0 4 -4 3 -8 -2 -9 -13 -123 -81 -151 -90 -12 -3 -21 -10
-21 -14 0 -4 -16 -13 -35 -21 -19 -8 -35 -17 -35 -22 0 -4 -4 -8 -9 -8 -5 0
-49 -23 -98 -51 -121 -71 -151 -88 -203 -117 -25 -14 -57 -33 -72 -43 -14 -11
-31 -19 -36 -19 -6 0 -17 -6 -24 -12 -13 -12 -58 -38 -133 -77 -16 -9 -31 -19
-33 -23 -2 -5 -8 -8 -13 -8 -6 0 -22 -8 -37 -19 -15 -10 -79 -47 -142 -83
-167 -94 -164 -92 -172 -103 -4 -5 -8 -6 -8 -2 0 5 -12 -1 -26 -12 -15 -12
-32 -21 -40 -21 -7 0 -14 -3 -16 -7 -1 -5 -16 -15 -33 -24 -16 -9 -81 -46
-144 -82 -62 -37 -115 -67 -116 -67 -2 0 -76 -43 -165 -95 -89 -52 -164 -95
-166 -95 -2 0 -28 -16 -58 -35 -30 -19 -57 -35 -60 -35 -3 0 -27 -13 -55 -29
l-50 -30 1 739 0 738 39 18 c21 11 39 22 39 27 0 4 4 7 10 7 5 0 44 20 86 45
41 25 77 45 79 45 2 0 38 20 79 45 42 25 81 45 86 45 6 0 10 3 10 8 0 4 14 13
31 21 18 8 59 30 93 51 33 20 86 50 116 67 30 17 93 53 140 80 47 27 92 52
100 56 8 4 29 15 45 25 17 10 50 30 75 44 73 41 154 88 170 98 8 6 26 15 40
21 13 5 27 14 30 18 3 4 21 15 40 24 19 10 53 28 75 41 22 14 56 34 76 44 67
37 504 287 571 327 9 5 39 22 65 36 26 15 64 36 83 48 19 11 60 34 90 51 30
17 69 39 85 48 17 10 55 32 85 49 30 16 74 42 97 56 24 15 44 27 46 27 3 0 53
29 113 64 60 36 112 65 117 65 4 1 7 -326 7 -727z"/>
</g>
</svg>
