<?xml version="1.0" encoding="UTF-8" standalone="no"?>
<svg width="529.167mm" height="62.1771mm"
 xmlns="http://www.w3.org/2000/svg" xmlns:xlink="http://www.w3.org/1999/xlink"  version="1.2" baseProfile="tiny">
<desc>Created by EvoPdf</desc>
<defs>
</defs>
<g fill="none" stroke="black" ="1" fill-rule="evenodd" strokeLinecap="square" strokeLinejoin="bevel" >

<g fill="#000000" fill-opacity="1" stroke="#000000" stroke-opacity="1" strokeWidth="1" strokeLinecap="square" strokeLinejoin="miter" stroke-miterlimit="2" transform="matrix(1,0,0,1,0,0)"
>
</g>

<g fill="#000000" fill-opacity="1" stroke="#000000" stroke-opacity="1" stroke-width="1" strokeLinecap="square" strokeLinejoin="miter" stroke-miterlimit="2" transform="matrix(1,0,0,1,0,0)"
>
</g>

<g fill="#000000" fill-opacity="1" stroke="#000000" stroke-opacity="1" strokeWidth="1" strokeLinecap="square" strokeLinejoin="miter" stroke-miterlimit="2" transform="matrix(1,0,0,1,0,0)"
>
</g>

<g fill="#000000" fill-opacity="1" stroke="#000000" stroke-opacity="1" strokeWidth="1" strokeLinecap="square" strokeLinejoin="miter" stroke-miterlimit="2" transform="matrix(1,0,0,1,0,0)"
>
</g>

<g fill="#000000" fill-opacity="1" stroke="#000000" stroke-opacity="1" strokeWidth="1" strokeLinecap="square" strokeLinejoin="miter" stroke-miterlimit="2" transform="matrix(1,0,0,1,8,8)"
>
</g>

<g fill="none" stroke="#000000" stroke-opacity="1" strokeWidth="2" strokeLinecap="butt" strokeLinejoin="miter" stroke-miterlimit="4" transform="matrix(1,0,0,1,8,8)"
>
<path vector-effect="none" fill-rule="nonzero" d="M215,124 L315,124 L315,210 L215,210 L215,124 M1,124 L101,124 L101,210 L1,210 L1,124 M345,124 L445,124 L445,210 L345,210 L345,124 M131,124 L185,124 L185,210 L131,210 L131,124"/>
</g>

<g fill="#000000" fill-opacity="1" stroke="#000000" stroke-opacity="1" strokeWidth="1" strokeLinecap="square" strokeLinejoin="miter" stroke-miterlimit="2" transform="matrix(1,0,0,1,8,8)"
>
</g>

<g fill="#ffffff" fill-opacity="1" stroke="none" transform="matrix(1,0,0,1,8,8)"
>
<path vector-effect="none" fill-rule="nonzero" d="M223,132 L323,132 L323,218 L223,218 L223,132 M9,132 L109,132 L109,218 L9,218 L9,132 M353,132 L453,132 L453,218 L353,218 L353,132 M139,132 L193,132 L193,218 L139,218 L139,132"/>
</g>

<g fill="none" stroke="#565454" stroke-opacity="1" strokeWidth="2" strokeLinecap="butt" strokeLinejoin="miter" stroke-miterlimit="4" transform="matrix(1,0,0,1,8,8)"
>
<path vector-effect="none" fill-rule="nonzero" d="M223,132 L323,132 L323,218 L223,218 L223,132 M9,132 L109,132 L109,218 L9,218 L9,132 M353,132 L453,132 L453,218 L353,218 L353,132 M139,132 L193,132 L193,218 L139,218 L139,132"/>
</g>

<g fill="#000000" fill-opacity="1" stroke="#000000" stroke-opacity="1" strokeWidth="1" strokeLinecap="square" strokeLinejoin="miter" stroke-miterlimit="2" transform="matrix(1,0,0,1,8,8)"
>
</g>

<g fill="none" stroke="#232323" stroke-opacity="1" strokeWidth="1.667" strokeLinecap="butt" strokeLinejoin="miter" stroke-miterlimit="4" transform="matrix(1,0,0,1,8,8)"
>
<path vector-effect="none" fill-rule="nonzero" d="M278.571,177.947 C274.11,185.598 268.186,190.482 265.339,188.854 C262.493,187.227 263.801,179.704 268.263,172.053 C272.723,164.402 278.648,159.518 281.494,161.146 C284.341,162.773 283.033,170.296 278.571,177.947 "/>
</g>

<g fill="#000000" fill-opacity="1" stroke="#000000" stroke-opacity="1" strokeWidth="1" strokeLinecap="square" strokeLinejoin="miter" stroke-miterlimit="2" transform="matrix(1,0,0,1,8,8)"
>
</g>

<g fill="none" stroke="#232323" stroke-opacity="1" strokeWidth="1.667" strokeLinecap="butt" strokeLinejoin="miter" stroke-miterlimit="4" transform="matrix(1,0,0,1,8,8)"
>
<path vector-effect="none" fill-rule="nonzero" d="M257.167,175 C257.167,178.222 264.256,180.833 273,180.833 C281.745,180.833 288.833,178.222 288.833,175 C288.833,171.778 281.745,169.167 273,169.167 C264.256,169.167 257.167,171.778 257.167,175 "/>
</g>

<g fill="#000000" fill-opacity="1" stroke="#000000" stroke-opacity="1" strokeWidth="1" strokeLinecap="square" strokeLinejoin="miter" stroke-miterlimit="2" transform="matrix(1,0,0,1,8,8)"
>
</g>

<g fill="none" stroke="#232323" stroke-opacity="1" strokeWidth="1.667" strokeLinecap="butt" strokeLinejoin="miter" stroke-miterlimit="4" transform="matrix(1,0,0,1,8,8)"
>
<path vector-effect="none" fill-rule="nonzero" d="M267.429,177.947 C271.89,185.598 277.814,190.482 280.661,188.854 C283.508,187.227 282.199,179.704 277.738,172.053 C273.277,164.402 267.353,159.518 264.506,161.146 C261.659,162.773 262.968,170.296 267.429,177.947 "/>
</g>

<g fill="#000000" fill-opacity="1" stroke="#000000" stroke-opacity="1" strokeWidth="1" strokeLinecap="square" strokeLinejoin="miter" stroke-miterlimit="2" transform="matrix(1,0,0,1,8,8)"
>
</g>

<g fill="none" stroke="#232323" stroke-opacity="1" strokeWidth="1.667" strokeLinecap="butt" strokeLinejoin="miter" stroke-miterlimit="4" transform="matrix(1,0,0,1,8,8)"
>
<path vector-effect="none" fill-rule="nonzero" d="M273,177.5 C274.381,177.5 275.5,176.381 275.5,175 C275.5,173.619 274.381,172.5 273,172.5 C271.619,172.5 270.5,173.619 270.5,175 C270.5,176.381 271.619,177.5 273,177.5 "/>
</g>

<g fill="#000000" fill-opacity="1" stroke="#000000" stroke-opacity="1" strokeWidth="1" strokeLinecap="square" strokeLinejoin="miter" stroke-miterlimit="2" transform="matrix(1,0,0,1,8,8)"
>
</g>

<g fill="none" stroke="#232323" stroke-opacity="1" strokeWidth="1.667" strokeLinecap="butt" strokeLinejoin="round" transform="matrix(1,0,0,1,8,8)"
>
<path vector-effect="none" fill-rule="nonzero" d="M403,165.678 L400.062,160.833 L395.5,160.833 L403,173.333 L410.5,160.833 L405.937,160.833 L402.999,165.678 L403,165.678"/>
</g>

<g fill="#000000" fill-opacity="1" stroke="#000000" stroke-opacity="1" strokeWidth="1" strokeLinecap="square" strokeLinejoin="miter" stroke-miterlimit="2" transform="matrix(1,0,0,1,8,8)"
>
</g>

<g fill="none" stroke="#232323" stroke-opacity="1" strokeWidth="1.667" strokeLinecap="butt" strokeLinejoin="round" transform="matrix(1,0,0,1,8,8)"
>
<path vector-effect="none" fill-rule="nonzero" d="M414.173,160.833 L403,179.152 L391.827,160.833 L385.5,160.833 L403,189.167 L420.5,160.833 L414.173,160.833"/>
</g>

<g fill="#000000" fill-opacity="1" stroke="#000000" stroke-opacity="1" strokeWidth="1" strokeLinecap="square" strokeLinejoin="miter" stroke-miterlimit="2" transform="matrix(1,0,0,1,8,8)"
>
</g>

<g fill="none" stroke="#565454" stroke-opacity="1" strokeWidth="2" strokeLinecap="butt" strokeLinejoin="miter" stroke-miterlimit="4" transform="matrix(1,0,0,1,8,8)"
>
<path vector-effect="none" fill-rule="nonzero" d="M229,138 L234,138"/>
</g>

<g fill="#000000" fill-opacity="1" stroke="#000000" stroke-opacity="1" strokeWidth="1" strokeLinecap="square" strokeLinejoin="miter" stroke-miterlimit="2" transform="matrix(1,0,0,1,8,8)"
>
</g>

<g fill="none" stroke="#000000" stroke-opacity="1" strokeWidth="1.5" strokeLinecap="round" strokeLinejoin="round" transform="matrix(1,0,0,1,8,8)"
>
<path vector-effect="none" fill-rule="nonzero" d="M219.625,39.375 L219.625,47.25 M203.875,12.375 L211.75,7.875 L219.625,12.375 L211.75,16.875 L203.875,12.375 M219.625,12.375 L219.625,30.375 L219.625,12.375"/>
</g>

<g fill="#000000" fill-opacity="1" stroke="#000000" stroke-opacity="1" strokeWidth="1" strokeLinecap="square" strokeLinejoin="miter" stroke-miterlimit="2" transform="matrix(1,0,0,1,8,8)"
>
</g>

<g fill="none" stroke="#000000" stroke-opacity="1" strokeWidth="1.5" strokeLinecap="round" strokeLinejoin="round" transform="matrix(1,0,0,1,8,8)"
>
<path vector-effect="none" fill-rule="nonzero" d="M203.875,12.375 L203.875,38.25 L219.625,47.25 L235.375,38.25 L235.375,21.375"/>
</g>

<g fill="#000000" fill-opacity="1" stroke="#000000" stroke-opacity="1" strokeWidth="1" strokeLinecap="square" strokeLinejoin="miter" stroke-miterlimit="2" transform="matrix(1,0,0,1,8,8)"
>
</g>

<g fill="none" stroke="#000000" stroke-opacity="1" strokeWidth="1.5" strokeLinecap="round" strokeLinejoin="round" transform="matrix(1,0,0,1,8,8)"
>
<path vector-effect="none" fill-rule="nonzero" d="M211.75,16.875 L211.75,34.875 L219.625,39.375 L243.25,25.875 L243.25,16.875"/>
</g>

<g fill="#000000" fill-opacity="1" stroke="#000000" stroke-opacity="1" strokeWidth="1" strokeLinecap="square" strokeLinejoin="miter" stroke-miterlimit="2" transform="matrix(1,0,0,1,8,8)"
>
</g>

<g fill="none" stroke="#000000" stroke-opacity="1" strokeWidth="1.5" strokeLinecap="round" strokeLinejoin="round" transform="matrix(1,0,0,1,8,8)"
>
<path vector-effect="none" fill-rule="nonzero" d="M227.5,16.875 L235.375,12.375 L243.25,16.875 L235.375,21.375 L227.5,16.875 M227.5,16.875 L227.5,25.875 M227.5,25.875 L235.375,30.375 M227.5,25.875 L211.75,34.875"/>
</g>

<g fill="#000000" fill-opacity="1" stroke="#000000" stroke-opacity="1" strokeWidth="1" strokeLinecap="square" strokeLinejoin="miter" stroke-miterlimit="2" transform="matrix(1,0,0,1,8,8)"
>
</g>

<g fill="none" stroke="#565454" stroke-opacity="1" strokeWidth="2" strokeLinecap="butt" strokeLinejoin="miter" stroke-miterlimit="4" transform="matrix(1,0,0,1,8,8)"
>
<path vector-effect="none" fill-rule="nonzero" d="M237,138 L242,138 M163,139 L169,139 M245,138 L250,138 M15,138 L20,138 M359,138 L364,138 M23,138 L28,138 M367,138 L372,138 M31,138 L36,138 M375,138 L380,138"/>
</g>

<g fill="#000000" fill-opacity="1" stroke="#000000" stroke-opacity="1" strokeWidth="1" strokeLinecap="square" strokeLinejoin="miter" stroke-miterlimit="2" transform="matrix(1,0,0,1,8,8)"
>
</g>

<g fill="none" stroke="#000000" stroke-opacity="1" strokeWidth="2" strokeLinecap="butt" strokeLinejoin="miter" stroke-miterlimit="4" transform="matrix(1,0,0,1,8,8)"
>
<path vector-effect="none" fill-rule="nonzero" d="M394,124 L394,94 M264,124 L264,94 M50,124 L50,94 M222,94 L222,64 M157,124 L157,94 M49,94 L395,94"/>
</g>

<g fill="#000000" fill-opacity="1" stroke="#000000" stroke-opacity="1" strokeWidth="1" strokeLinecap="square" strokeLinejoin="miter" stroke-miterlimit="2" transform="matrix(1,0,0,1,8,8)"
>
</g>

<g fill="none" stroke="#232323" stroke-opacity="1" strokeWidth="1.67" strokeLinecap="butt" strokeLinejoin="miter" stroke-miterlimit="4" transform="matrix(1,0,0,1,8,8)"
>
<path vector-effect="none" fill-rule="nonzero" d="M71.69,185.017 C71.604,185.151 71.513,185.298 71.431,185.432 L71.297,185.649 C71.1863,185.832 71.062,186.007 70.925,186.172 C70.704,186.426 70.515,186.529 70.242,186.529 C69.769,186.529 69.487,186.218 68.912,185.376 L68.853,185.29 C68.387,184.604 67.633,183.496 66.201,183.496 C64.743,183.496 64.045,184.64 63.627,185.326 L63.575,185.411 C63.057,186.255 62.82,186.529 62.373,186.529 C61.9,186.529 61.618,186.218 61.043,185.376 L60.984,185.29 C60.518,184.604 59.764,183.496 58.333,183.496 C56.873,183.496 56.176,184.64 55.758,185.326 L55.706,185.411 C55.188,186.255 54.951,186.529 54.504,186.529 C54.031,186.529 53.749,186.218 53.174,185.376 L53.115,185.29 C52.649,184.604 51.895,183.496 50.464,183.496 C49.004,183.496 48.308,184.64 47.889,185.326 L47.837,185.411 C47.319,186.255 47.082,186.529 46.635,186.529 C46.362,186.529 46.147,186.423 45.895,186.158 C44.5366,183.75 43.8267,181.031 43.835,178.266 C43.835,169.705 50.438,162.835 58.5,162.835 C66.562,162.835 73.165,169.705 73.165,178.266 C73.165,180.689 72.635,182.98 71.691,185.017 L71.69,185.017"/>
</g>

<g fill="#000000" fill-opacity="1" stroke="#000000" stroke-opacity="1" strokeWidth="1" strokeLinecap="square" strokeLinejoin="miter" stroke-miterlimit="2" transform="matrix(1,0,0,1,8,8)"
>
</g>

<g fill="none" stroke="#232323" stroke-opacity="1" strokeWidth="1.67" strokeLinecap="butt" strokeLinejoin="miter" stroke-miterlimit="4" transform="matrix(1,0,0,1,8,8)"
>
<path vector-effect="none" fill-rule="nonzero" d="M64.494,174.755 C64.494,176.843 63.96,178.503 62.908,179.636 C61.867,180.758 60.201,181.488 57.668,181.488 C55.137,181.488 53.471,180.758 52.43,179.636 C51.378,178.503 50.844,176.843 50.844,174.755 C50.844,170.671 53.998,167.062 57.669,167.062 C61.34,167.062 64.494,170.671 64.494,174.755 L64.494,174.755"/>
</g>

<g fill="#000000" fill-opacity="1" stroke="#000000" stroke-opacity="1" strokeWidth="1" strokeLinecap="square" strokeLinejoin="miter" stroke-miterlimit="2" transform="matrix(1,0,0,1,8,8)"
>
</g>

<g fill="#232323" fill-opacity="1" stroke="none" transform="matrix(1,0,0,1,8,8)"
>
<path vector-effect="none" fill-rule="nonzero" d="M55.609,175.006 C57.195,175.006 58.481,173.587 58.481,171.836 C58.481,170.085 57.195,168.665 55.609,168.665 C54.022,168.665 52.736,170.085 52.736,171.836 C52.736,173.587 54.023,175.006 55.609,175.006 "/>
</g>

<g fill="#000000" fill-opacity="1" stroke="#000000" stroke-opacity="1" strokeWidth="1" strokeLinecap="square" strokeLinejoin="miter" stroke-miterlimit="2" transform="matrix(1,0,0,1,8,8)"
>
</g>

<g fill="#ffffff" fill-opacity="1" stroke="none" transform="matrix(1,0,0,1,8,8)"
>
<path vector-effect="none" fill-rule="nonzero" d="M55.13,172.567 C55.923,172.567 56.566,171.912 56.566,171.104 C56.566,170.296 55.923,169.641 55.13,169.641 C54.337,169.641 53.694,170.296 53.694,171.104 C53.694,171.912 54.337,172.567 55.13,172.567 "/>
</g>

<g fill="#000000" fill-opacity="1" stroke="#000000" stroke-opacity="1" strokeWidth="1" strokeLinecap="square" strokeLinejoin="miter" stroke-miterlimit="2" transform="matrix(1,0,0,1,8,8)"
>
</g>

<g fill="#000000" fill-opacity="1" stroke="#000000" stroke-opacity="1" strokeWidth="1" strokeLinecap="square" strokeLinejoin="miter" stroke-miterlimit="2" transform="matrix(1,0,0,1,8,8)"
>
</g>

<g fill="#000000" fill-opacity="1" stroke="#000000" stroke-opacity="1" strokeWidth="1" strokeLinecap="square" strokeLinejoin="miter" stroke-miterlimit="2" transform="matrix(1,0,0,1,0,0)"
>
</g>

<g fill="#000000" fill-opacity="1" stroke="#000000" stroke-opacity="1" strokeWidth="1" strokeLinecap="square" strokeLinejoin="miter" stroke-miterlimit="2" transform="matrix(1,0,0,1,0,0)"
>
</g>

<g fill="#000000" fill-opacity="1" stroke="#000000" stroke-opacity="1" strokeWidth="1" strokeLinecap="square" strokeLinejoin="miter" stroke-miterlimit="2" transform="matrix(1,0,0,1,0,0)"
>
</g>

<g fill="#000000" fill-opacity="1" stroke="#000000" stroke-opacity="1" strokeWidth="1" strokeLinecap="square" strokeLinejoin="miter" stroke-miterlimit="2" transform="matrix(1,0,0,1,0,0)"
>
</g>

<g fill="#000000" fill-opacity="1" stroke="#000000" stroke-opacity="1" strokeWidth="1" strokeLinecap="square" strokeLinejoin="miter" stroke-miterlimit="2" transform="matrix(1,0,0,1,8,8)"
>
</g>

<g fill="#000000" fill-opacity="1" stroke="#000000" stroke-opacity="1" strokeWidth="1" strokeLinecap="square" strokeLinejoin="miter" stroke-miterlimit="2" transform="matrix(1,0,0,1,0,0)"
>
</g>

<g fill="#000000" fill-opacity="1" stroke="#000000" stroke-opacity="1" strokeWidth="1" strokeLinecap="square" strokeLinejoin="miter" stroke-miterlimit="2" transform="matrix(1,0,0,1,0,0)"
>
</g>

<g fill="#000000" fill-opacity="1" stroke="#000000" stroke-opacity="1" strokeWidth="1" strokeLinecap="square" strokeLinejoin="miter" stroke-miterlimit="2" transform="matrix(1,0,0,1,0,0)"
>
</g>

<g fill="#000000" fill-opacity="1" stroke="#000000" stroke-opacity="1" strokeWidth="1" strokeLinecap="square" strokeLinejoin="miter" stroke-miterlimit="2" transform="matrix(1,0,0,1,0,0)"
>
</g>

<g fill="#000000" fill-opacity="1" stroke="#000000" stroke-opacity="1" strokeWidth="1" strokeLinecap="square" strokeLinejoin="miter" stroke-miterlimit="2" transform="matrix(1,0,0,1,0,0)"
>
</g>

<g fill="#000000" fill-opacity="1" stroke="#000000" stroke-opacity="1" strokeWidth="1" strokeLinecap="square" strokeLinejoin="miter" stroke-miterlimit="2" transform="matrix(1,0,0,1,0,0)"
>
</g>
</g>
</svg>
